# AST/ASF file generated using VICON BodyLanguage
# -----------------------------------------------
:version 1.10
:name VICON
:units
  mass 1.0
  length 0.45
  angle deg
:documentation
   .ast/.asf automatically generated from VICON data using
   VICON BodyBuilder and BodyLanguage model FoxedUp or BRILLIANT.MOD
:root
   order TX TY TZ RX RY RZ
   axis XYZ
   position 0 0 0  
   orientation 0 0 0 
:bonedata
  begin
     id 1 
     name lhipjoint
     direction 0.624716 -0.669793 0.401383 
     length 2.38238 
     axis 0 0 0  XYZ
  end
  begin
     id 2 
     name lfemur
     direction 0.34202 -0.939693 0  
     length 6.4574  
     axis 0 0 20  XYZ
    dof rx ry rz
    limits (-160.0 20.0)
           (-70.0 70.0)
           (-60.0 70.0)
  end
  begin
     id 3 
     name ltibia
     direction 0.34202 -0.939693 0   
     length 7.68739   
     axis 0 0 20   XYZ
    dof rx
    limits (-10.0 170.0)
  end
  begin
     id 4 
     name lfoot
     direction 0.0681309 -0.187188 0.979959   
     length 2.46615   
     axis -90 7.62852e-016 20   XYZ
    dof rx rz
    limits (-45.0 90.0)
           (-70.0 20.0)
  end
  begin
     id 5 
     name ltoes
     direction 1.53566e-011 -4.21819e-011 1   
     length 1.2376   
     axis -90 7.62852e-016 20   XYZ
    dof rx
    limits (-90.0 20.0)
  end
  begin
     id 6 
     name rhipjoint
     direction -0.644473 -0.655875 0.393043   
     length 2.43293  
     axis 0 0 0  XYZ 
  end
  begin
     id 7 
     name rfemur
     direction -0.34202 -0.939693 0   
     length 6.7025   
     axis 0 0 -20   XYZ
    dof rx ry rz
    limits (-160.0 20.0)
           (-70.0 70.0)
           (-70.0 60.0)
  end
  begin
     id 8 
     name rtibia
     direction -0.34202 -0.939693 0   
     length 7.80547   
     axis 0 0 -20   XYZ
    dof rx
    limits (-10.0 170.0)
 end
 begin
     id 9 
     name rfoot
     direction -0.0756734 -0.207911 0.975216   
     length 2.40315  
     axis -90 -7.62852e-016 -20   XYZ
    dof rx rz
    limits (-45.0 90.0)
           (-20.0 70.0)
  end
  begin
     id 10 
     name rtoes
     direction -1.5353e-011 -4.21879e-011 1   
     length 1.20477   
     axis -90 -7.62852e-016 -20   XYZ
    dof rx
    limits (-90.0 20.0)
  end
  begin
     id 11 
     name lowerback
     direction 0.0160353 0.987463 -0.157037   
     length 2.18572   
     axis 0 0 0   XYZ
    dof rx ry rz
    limits (-20.0 45.0)
           (-30.0 30.0)
           (-30.0 30.0)
  end
  begin
     id 12 
     name upperback
     direction -0.00499661 0.999756 0.0215076   
     length 2.18016   
     axis 0 0 0   XYZ
    dof rx ry rz
    limits (-20.0 45.0)
           (-30.0 30.0)
           (-30.0 30.0)
  end
  begin
     id 13 
     name thorax
     direction -0.00921346 0.995333 0.0960619   
     length 2.24923   
     axis 0 0 0   XYZ
    dof rx ry rz
    limits (-20.0 45.0)
           (-30.0 30.0)
           (-30.0 30.0)
  end
  begin
     id 14 
     name lowerneck
     direction 0.0274184 0.991181 0.12965   
     length 1.70911   
     axis 0 0 0   XYZ
    dof rx ry rz
    limits (-20.0 45.0)
           (-30.0 30.0)
           (-30.0 30.0)
  end
  begin
     id 15 
     name upperneck
     direction 0.0015627 0.999959 -0.00893559   
     length 1.69312   
     axis 0 0 0   XYZ
    dof rx ry rz
    limits (-20.0 45.0)
           (-30.0 30.0)
           (-30.0 30.0)
  end
  begin
     id 16
     name head
     direction -0.00230242 0.999856 -0.0168327  
     length 1.80241  
     axis 0 0 0   XYZ
    dof rx ry rz
    limits (-20.0 45.0)
           (-30.0 30.0)
           (-30.0 30.0)
  end
  begin
     id 17 
     name lclavicle
     direction 0.955523 0.290741 -0.0494489  
     length 3.84275  
     axis 0 0 0   XYZ
    dof ry rz
    limits (-20.0 10.0)
           (0.0 20.0)
  end
  begin
     id 18 
     name lhumerus
     direction 1 -4.48967e-011 -3.18382e-028   
     length 5.17714   
     axis 180 -30 -90   XYZ
    dof rx ry rz
    limits (-60.0 90.0)
           (-90.0 90.0)
           (-90.0 90.0)
  end
  begin
     id 19
     name lradius
     direction 1 -4.48968e-011 -2.22911e-027   
     length 3.43679   
     axis 180 -30 -90   XYZ
    dof rx
    limits (-10.0 170.0)
  end
  begin
     id 20
     name lwrist
     direction 1 -4.48951e-011 -6.32245e-027   
     length 1.7184   
     axis 3.57107e-015 90 90   XYZ
    dof ry
    limits (-180.0 0.0)
 end
  begin
     id 21 
     name lhand
     direction 1 -4.48924e-011 -1.26431e-026   
     length 0.573117   
     axis 8.06912e-015 90 90   XYZ
    dof rx rz
    limits (-90.0 90.0)
           (-45.0 45.0)
  end
  begin
     id 22 
     name lfingers
     direction 1 -4.49001e-011 -2.52965e-026   
     length 0.462062   
     axis 1.61381e-014 90 90   XYZ
    dof rx
    limits (0.0 90.0)
  end
  begin
     id 23
     name lthumb
     direction 0.707107 -6.35008e-011 0.707107   
     length 0.663431   
     axis -90 45 -1.62303e-014   XYZ
    dof rx rz
    limits (-45.0 45.0)
           (-45.0 45.0)
  end
  begin
     id 24 
     name rclavicle
     direction -0.963917 0.256881 -0.0698287   
     length 3.73057  
     axis 0 0 0   XYZ 
    dof ry rz
    limits (-10.0 20.0)
           (-20.0 0.0)
  end
  begin
     id 25 
     name rhumerus
     direction -1 -4.48962e-011 -2.73982e-027  
     length 5.23908   
     axis 180 30 90   XYZ
    dof rx ry rz
    limits (-90.0 60.0)
           (-90.0 90.0)
           (-90.0 90.0)
  end
  begin
     id 26 
     name rradius
     direction -1 -4.48968e-011 -4.33218e-027   
     length 3.46485   
     axis 180 30 90   XYZ
    dof rx
    limits (-10.0 170.0)
  end
  begin
     id 27 
     name rwrist
     direction -1 -4.48989e-011 -6.32372e-027   
     length 1.73243   
     axis 3.57107e-015 -90 -90   XYZ
    dof ry
    limits (-180.0 0.0)
  end
  begin
     id 28
     name rhand
     direction -1 -4.48948e-011 -1.26448e-026   
     length 0.608752   
     axis 8.06912e-015 -90 -90   XYZ
    dof rx rz
    limits (-90.0 90.0)
           (-45.0 45.0)
  end
  begin
     id 29
     name rfingers
     direction -1 -4.48962e-011 -2.52913e-026   
     length 0.490792   
     axis 1.61381e-014 -90 -90   XYZ
    dof rx
    limits (0.0 90.0)
  end
  begin
     id 30
     name rthumb
     direction -0.707107 -6.34878e-011 0.707107   
     length 0.704682   
     axis -90 -45 1.62303e-014   XYZ
    dof rx rz
    limits (-45.0 45.0)
           (-45.0 45.0)
  end
:hierarchy
  begin
    root lhipjoint rhipjoint lowerback
    lhipjoint lfemur
    lfemur ltibia
    ltibia lfoot
    lfoot ltoes
    rhipjoint rfemur
    rfemur rtibia
    rtibia rfoot
    rfoot rtoes
    lowerback upperback
    upperback thorax
    thorax lowerneck lclavicle rclavicle
    lowerneck upperneck
    upperneck head
    lclavicle lhumerus
    lhumerus lradius
    lradius lwrist
    lwrist lhand lthumb
    lhand lfingers
    rclavicle rhumerus
    rhumerus rradius
    rradius rwrist
    rwrist rhand rthumb
    rhand rfingers
  end

#!OML:ASF G:\JayActor3\Patient Classification 1\Patient 1\Session 6\male.ASF
:FULLY-SPECIFIED
:DEGREES
896
root -1.04205 14.1944 -2.83973 37.665 -25.6185 -2.56315
lowerback 54.9362 1.86245 -1.43281
upperback 10.0875 1.00317 1.34741
thorax -9.87875 0.163774 1.72204
lowerneck 13.7152 0.221774 2.03447
upperneck -30.4491 1.6341 2.65136
head -12.3465 0.0374312 0.441478
rclavicle -7.95139e-016 -3.967e-014
rhumerus -46.7187 2.01006 -83.1858
rradius 75.736
rwrist -3.03347
rhand -19.5936 -0.849304
rfingers 7.12502
rthumb 6.73214 -30.7223
lclavicle -7.95139e-016 -3.967e-014
lhumerus -51.12 -11.3062 86.9784
lradius 72.9661
lwrist 40.3631
lhand -15.2966 -3.41012
lfingers 7.12502
lthumb 10.8786 26.2881
rfemur -89.0172 -2.18993 28.6835
rtibia 78.0972
rfoot -22.7937 -4.01162
rtoes 3.90945
lfemur -86.9021 11.5797 -29.3055
ltibia 75.7536
lfoot -23.6362 -1.95631
ltoes 5.96731
897
root -1.05026 14.1842 -2.83267 37.6922 -25.5958 -2.55016
lowerback 55.1777 1.96387 -1.50991
upperback 10.0349 1.08686 1.44518
thorax -9.96502 0.195099 1.82707
lowerneck 13.3789 0.190141 2.10989
upperneck -30.2085 1.48561 2.34096
head -12.173 0.0117716 0.329839
rclavicle -3.04141e-014 -3.80362e-014
rhumerus -46.6565 2.25746 -83.2455
rradius 75.0642
rwrist -3.20881
rhand -19.3911 -0.83907
rfingers 7.12502
rthumb 6.92766 -30.7057
lclavicle -3.04141e-014 -3.80362e-014
lhumerus -50.9243 -11.5093 87.3239
lradius 72.1417
lwrist 40.1687
lhand -15.3133 -3.46505
lfingers 7.12502
lthumb 10.8625 26.234
rfemur -89.1119 -2.18571 28.6921
rtibia 78.2587
rfoot -22.8576 -4.03807
rtoes 3.87417
lfemur -87.0127 11.5786 -29.2983
ltibia 75.934
lfoot -23.6808 -1.97584
ltoes 5.90083
898
root -1.05867 14.1737 -2.82528 37.6872 -25.5632 -2.54966
lowerback 55.3895 2.05794 -1.58171
upperback 9.98669 1.1667 1.55049
thorax -10.0439 0.224356 1.93977
lowerneck 12.9915 0.155339 2.20744
upperneck -29.8669 1.33103 2.0175
head -11.9505 -0.0158389 0.210466
rclavicle -4.49253e-014 -4.15957e-014
rhumerus -46.5026 2.56897 -83.3193
rradius 74.2651
rwrist -3.29734
rhand -19.2244 -0.807385
rfingers 7.12502
rthumb 7.0885 -30.6687
lclavicle -4.49253e-014 -4.15957e-014
lhumerus -50.6872 -11.7536 87.6991
lradius 71.2452
lwrist 39.9063
lhand -15.3347 -3.51462
lfingers 7.12502
lthumb 10.842 26.1855
rfemur -89.1779 -2.16195 28.691
rtibia 78.4387
rfoot -22.906 -4.09242
rtoes 3.8223
lfemur -87.0927 11.5708 -29.2568
ltibia 76.1364
lfoot -23.726 -1.96261
ltoes 5.77947
899
root -1.06731 14.1621 -2.8179 37.6656 -25.5163 -2.56826
lowerback 55.5489 2.14227 -1.63866
upperback 9.95348 1.2448 1.65931
thorax -10.1016 0.252486 2.05053
lowerneck 12.5607 0.113971 2.30181
upperneck -29.4453 1.17325 1.72349
head -11.6911 -0.0478643 0.103808
rclavicle 3.57812e-015 5.12492e-014
rhumerus -46.2744 2.90936 -83.3992
rradius 73.3882
rwrist -3.32446
rhand -19.0779 -0.746292
rfingers 7.12502
rthumb 7.22992 -30.6028
lclavicle 3.57812e-015 5.12492e-014
lhumerus -50.4147 -12.006 88.0831
lradius 70.309
lwrist 39.6118
lhand -15.3337 -3.59594
lfingers 7.12502
lthumb 10.8429 26.1041
rfemur -89.227 -2.11459 28.6893
rtibia 78.6376
rfoot -22.9507 -4.17487
rtoes 3.75161
lfemur -87.1614 11.5516 -29.1729
ltibia 76.3652
lfoot -23.7749 -1.90176
ltoes 5.56101
900
root -1.07625 14.1492 -2.81048 37.6203 -25.4615 -2.6058
lowerback 55.6657 2.2157 -1.68395
upperback 9.93917 1.31636 1.76384
thorax -10.134 0.277558 2.15433
lowerneck 12.1159 0.068368 2.38432
upperneck -28.9801 1.02278 1.48153
head -11.4163 -0.0825666 0.0183549
rclavicle -2.84262e-014 -3.73094e-014
rhumerus -45.9922 3.24731 -83.4874
rradius 72.4801
rwrist -3.29959
rhand -18.9657 -0.666985
rfingers 7.12502
rthumb 7.33822 -30.5197
lclavicle -2.84262e-014 -3.73094e-014
lhumerus -50.136 -12.2515 88.4574
lradius 69.3967
lwrist 39.3443
lhand -15.3448 -3.64731
lfingers 7.12502
lthumb 10.8322 26.0533
rfemur -89.2444 -2.04371 28.6868
rtibia 78.8381
rfoot -22.99 -4.28562
rtoes 3.64039
lfemur -87.2008 11.5115 -29.0323
ltibia 76.6038
lfoot -23.8227 -1.78196
ltoes 5.26367
901
root -1.08532 14.1348 -2.80309 37.546 -25.3929 -2.65849
lowerback 55.7503 2.27124 -1.70747
upperback 9.94722 1.37761 1.85793
thorax -10.1377 0.298044 2.24149
lowerneck 11.692 0.0157989 2.44783
upperneck -28.52 0.883502 1.31776
head -11.1522 -0.121773 -0.0358551
rclavicle -2.5842e-015 2.43014e-014
rhumerus -45.682 3.55482 -83.5772
rradius 71.5943
rwrist -3.25294
rhand -18.8908 -0.583402
rfingers 7.12502
rthumb 7.41054 -30.4336
lclavicle -2.5842e-015 2.43014e-014
lhumerus -49.8701 -12.4613 88.7994
lradius 68.5626
lwrist 39.1278
lhand -15.3828 -3.65186
lfingers 7.12502
lthumb 10.7956 26.0507
rfemur -89.2295 -1.96414 28.6914
rtibia 79.0555
rfoot -23.0443 -4.41603
rtoes 3.49499
lfemur -87.2172 11.459 -28.8476
ltibia 76.8718
lfoot -23.8786 -1.63365
ltoes 4.92822
902
root -1.09373 14.1313 -2.79738 37.4247 -25.3159 -2.71885
lowerback 55.8299 2.30879 -1.71257
upperback 9.97949 1.42451 1.93507
thorax -10.1119 0.312209 2.30811
lowerneck 11.3329 -0.0378663 2.48149
upperneck -28.1185 0.769015 1.25103
head -10.9274 -0.161059 -0.0524016
rclavicle 1.13307e-014 -5.479e-015
rhumerus -45.366 3.8121 -83.6632
rradius 70.7827
rwrist -3.20594
rhand -18.8595 -0.509261
rfingers 7.12502
rthumb 7.44076 -30.3584
lclavicle 1.13307e-014 -5.479e-015
lhumerus -49.641 -12.6463 89.0996
lradius 67.873
lwrist 38.9902
lhand -15.4691 -3.60739
lfingers 7.12502
lthumb 10.7123 26.0995
rfemur -89.0926 -1.88971 28.7008
rtibia 79.216
rfoot -23.1175 -4.55091
rtoes 3.35443
lfemur -87.1204 11.4071 -28.6336
ltibia 77.0927
lfoot -23.9404 -1.48613
ltoes 4.62331
